<svg width="20" height="20" viewBox="0 0 20 20" fill="none" xmlns="http://www.w3.org/2000/svg">
<path d="M10 0.197998L12.2451 7.03941L19.5106 7.03941L13.6327 11.2676L15.8779 18.1091L10 13.8808L4.12215 18.1091L6.36729 11.2676L0.489435 7.03941L7.75486 7.03941L10 0.197998Z" fill="#E5E5E5"/>
<path d="M10 1.80155L11.7701 7.19532L11.883 7.53941H12.2451L17.9593 7.53941L13.3407 10.8618L13.0435 11.0756L13.1576 11.4235L14.9244 16.8073L10.292 13.4749L10 13.2649L9.70802 13.4749L5.07559 16.8073L6.84236 11.4235L6.95655 11.0756L6.65927 10.8618L2.04074 7.53941L7.75486 7.53941H8.11701L8.22993 7.19532L10 1.80155Z" stroke="black" stroke-opacity="0.72"/>
<path fill-rule="evenodd" clip-rule="evenodd" d="M10.1106 0L7.86543 6.84142H0.599998L6.47785 11.0696L4.23271 17.9111L10.1106 13.6828V0Z" fill="black" fill-opacity="0.72"/>
</svg>
