<svg width="20" height="20" viewBox="0 0 20 20" fill="none" xmlns="http://www.w3.org/2000/svg">
<path d="M10 0L12.2451 6.90983H19.5106L13.6327 11.1803L15.8779 18.0902L10 13.8197L4.12215 18.0902L6.36729 11.1803L0.489435 6.90983H7.75486L10 0Z" fill="#E5E5E5"/>
<path d="M10 1.61804L11.7696 7.06434L11.8819 7.40983H12.2451H17.9717L13.3388 10.7758L13.0449 10.9894L13.1572 11.3348L14.9268 16.7812L10.2939 13.4152L10 13.2016L9.70611 13.4152L5.0732 16.7812L6.84282 11.3348L6.95507 10.9894L6.66118 10.7758L2.02828 7.40983H7.75486H8.11813L8.23039 7.06434L10 1.61804Z" stroke="black" stroke-opacity="0.72"/>
<path fill-rule="evenodd" clip-rule="evenodd" d="M12.1106 6.77091L9.91056 0L7.66542 6.90983H0.399994L6.27785 11.1803L4.03271 18.0902L9.91056 13.8197L12.1106 15.4181V6.77091Z" fill="black" fill-opacity="0.72"/>
</svg>
